<svg width="146" height="32" viewBox="0 0 146 32" fill="none" xmlns="http://www.w3.org/2000/svg">
<g clip-path="url(#clip0)">
<path d="M51.6153 20.6098H49.3491V15.3793C49.3491 14.2492 48.8373 13.6754 47.8313 13.6754C46.9645 13.6754 46.3518 14.0113 45.9967 14.7075C45.9967 14.788 46.0176 15.2218 46.0176 15.3618V20.6133H43.7513V15.2218C43.7513 14.2702 43.2187 13.6754 42.2718 13.6754C41.4642 13.6754 40.8341 13.9938 40.4199 14.627V20.6133H38.1536V11.6951H40.4199V12.6853C41.1091 11.912 42.0351 11.5342 43.2013 11.5342C44.5207 11.5342 45.4502 12.108 45.7844 12.9617C46.5154 12.01 47.5006 11.5342 48.7816 11.5342C50.6754 11.5342 51.6223 12.6258 51.6223 14.7845V20.6098H51.6153Z" fill="black" fill-opacity="0.87"/>
<path d="M61.5297 19.7215C60.6629 20.4562 59.5384 20.8306 58.139 20.8306C56.7013 20.8306 55.556 20.3933 54.6683 19.5431C53.8015 18.6894 53.3663 17.5628 53.3663 16.1528C53.3663 14.8233 53.8015 13.7142 54.6474 12.822C55.4968 11.9299 56.6386 11.475 58.0589 11.475C59.2217 11.475 60.2277 11.8704 61.0353 12.6436C61.843 13.4168 62.2572 14.407 62.2572 15.6175C62.2572 16.1143 62.2189 16.5307 62.118 16.8456H55.7092C55.8867 18.1716 56.9519 18.9273 58.3722 18.9273C59.3783 18.9273 60.2068 18.6509 60.8752 18.1156L61.5297 19.7215ZM55.6361 15.3201H59.9945C60.0154 14.211 59.2251 13.3783 57.965 13.3783C56.6804 13.3783 55.8937 14.0326 55.6361 15.3201Z" fill="black" fill-opacity="0.87"/>
<path d="M65.7489 19.0672C65.6514 18.8888 65.5922 18.6718 65.5922 18.4514C65.5922 18.1925 65.6514 17.9966 65.7906 17.8182C64.4713 17.2829 63.681 16.1528 63.681 14.8268C63.681 13.8961 64.0361 13.1229 64.7254 12.4686C65.4147 11.8144 66.3407 11.4785 67.4651 11.4785C68.3145 11.4785 69.0803 11.6954 69.7313 12.1118L72.4118 11.517L72.4919 13.3398L71.0159 13.6757C71.1551 14.0535 71.2317 14.4279 71.2317 14.8268C71.2317 15.7399 70.8766 16.5096 70.1874 17.1639C69.4981 17.7972 68.5895 18.1155 67.4651 18.1155H67.3084C67.2875 18.196 67.2701 18.315 67.2701 18.4514C67.2701 18.6299 67.3084 18.7698 67.3885 18.9063H67.486C68.8471 18.9063 69.9715 19.1442 70.8174 19.641C71.6668 20.1378 72.0985 20.8515 72.0985 21.8207C72.0985 22.7933 71.6634 23.5036 70.8174 24.0004C69.968 24.4972 68.8471 24.7351 67.486 24.7351C64.7254 24.7351 62.8734 23.7835 62.8734 21.8207C62.8699 20.3932 63.9944 19.4416 65.7489 19.0672ZM67.486 22.9088C69.143 22.9088 69.9715 22.5519 69.9715 21.8172C69.9715 21.1629 69.0838 20.7256 67.486 20.7256C65.909 20.7256 64.983 21.1629 64.983 21.8172C64.9795 22.5134 65.9264 22.9088 67.486 22.9088ZM69.1221 14.8268C69.1221 13.9556 68.492 13.3223 67.4651 13.3223C66.459 13.3223 65.808 13.9766 65.808 14.8268C65.808 15.6804 66.459 16.2717 67.4651 16.2717C68.4328 16.2717 69.1221 15.6979 69.1221 14.8268Z" fill="black" fill-opacity="0.87"/>
<path d="M73.9888 12.3287C74.9566 11.7549 76.0009 11.475 77.1253 11.475C79.6492 11.475 80.6761 12.7241 80.6761 15.1802V20.6102H78.7058V19.5781C78.1732 20.3513 77.2855 20.7291 76.0845 20.7291C74.4274 20.7291 73.303 19.6795 73.303 17.9931C73.303 16.1108 74.6433 15.0997 76.537 15.0997C77.3446 15.0997 78.0165 15.2991 78.5491 15.6735C78.6083 14.1096 78.1558 13.3748 76.8921 13.3748C76.2411 13.3748 75.4544 13.5743 74.5667 13.9906L73.9888 12.3287ZM78.5457 17.9966V17.0835C78.1697 16.7861 77.6371 16.6461 76.9896 16.6461C76.1819 16.6461 75.5692 17.0415 75.5692 17.7552C75.5692 18.4095 76.1019 18.8048 76.8329 18.8048C77.5988 18.8083 78.1697 18.5319 78.5457 17.9966Z" fill="black" fill-opacity="0.87"/>
<path d="M90.7889 19.2842C90.0579 20.2953 88.7385 20.8306 87.259 20.8306C85.8213 20.8306 84.6551 20.3933 83.7674 19.5431C82.8797 18.6894 82.448 17.5628 82.448 16.1528C82.448 14.8233 82.8832 13.7142 83.75 12.822C84.6168 11.9299 85.7203 11.475 87.0432 11.475C88.6201 11.475 89.8037 11.8704 90.6114 12.6856L89.5461 14.4874C88.9543 13.9136 88.2268 13.6162 87.3391 13.6162C86.6881 13.6162 86.0963 13.8542 85.6054 14.33C85.1111 14.7848 84.8744 15.4006 84.8744 16.1528C84.8744 16.926 85.132 17.5383 85.6229 18.0141C86.1346 18.469 86.7473 18.7069 87.4365 18.7069C88.3033 18.7069 89.0727 18.35 89.7237 17.6153L90.7889 19.2842Z" fill="black" fill-opacity="0.87"/>
<path d="M92.721 12.3287C93.6887 11.7549 94.7331 11.475 95.8575 11.475C98.3814 11.475 99.4083 12.7241 99.4083 15.1802V20.6102H97.438V19.5781C96.9053 20.3513 96.0176 20.7291 94.8166 20.7291C93.1596 20.7291 92.0352 19.6795 92.0352 17.9931C92.0352 16.1108 93.3754 15.0997 95.2692 15.0997C96.0768 15.0997 96.7487 15.2991 97.2813 15.6735C97.3405 14.1096 96.8879 13.3748 95.6243 13.3748C94.9733 13.3748 94.1866 13.5743 93.2989 13.9906L92.721 12.3287ZM97.2743 17.9966V17.0835C96.8984 16.7861 96.3658 16.6461 95.7183 16.6461C94.9106 16.6461 94.2979 17.0415 94.2979 17.7552C94.2979 18.4095 94.8306 18.8048 95.5616 18.8048C96.3275 18.8083 96.9019 18.5319 97.2743 17.9966Z" fill="black" fill-opacity="0.87"/>
<path d="M115.199 20.6103H112.933V15.3797C112.933 14.2496 112.421 13.6758 111.415 13.6758C110.548 13.6758 109.935 14.0117 109.58 14.7079C109.58 14.7884 109.601 15.2223 109.601 15.3622V20.6138H107.335V15.2223C107.335 14.2706 106.802 13.6758 105.855 13.6758C105.048 13.6758 104.418 13.9942 104.003 14.6275V20.6138H101.737V11.6955H104.003V12.6857C104.693 11.9125 105.619 11.5346 106.785 11.5346C108.104 11.5346 109.034 12.1084 109.368 12.9621C110.099 12.0104 111.084 11.5346 112.365 11.5346C114.259 11.5346 115.206 12.6262 115.206 14.7849V20.6103H115.199Z" fill="black" fill-opacity="0.87"/>
<path d="M117.503 24.5742V11.6954H119.77V12.5491C120.341 11.9333 121.406 11.4785 122.509 11.4785C123.714 11.4785 124.699 11.8948 125.427 12.7485C126.158 13.6022 126.53 14.6903 126.53 16.0198C126.53 17.4053 126.095 18.5564 125.228 19.4695C124.361 20.3827 123.237 20.8375 121.837 20.8375C120.95 20.8375 120.261 20.6976 119.766 20.4002V24.5812H117.503V24.5742ZM119.77 14.5888V18.196C120.302 18.5319 120.915 18.7103 121.643 18.7103C123.16 18.7103 124.128 17.6012 124.128 16.0758C124.128 14.6308 123.279 13.6197 121.803 13.6197C121.033 13.6162 120.341 13.9346 119.77 14.5888Z" fill="black" fill-opacity="0.87"/>
<path d="M136.528 11.6955V20.6137H134.262V19.5221C133.552 20.3933 132.605 20.8306 131.421 20.8306C129.587 20.8306 128.305 19.5816 128.305 17.143V11.6955H130.572V16.6706C130.572 18.0386 131.143 18.7104 132.267 18.7104C133.036 18.7104 133.705 18.3535 134.258 17.6188V11.6955H136.528Z" fill="black" fill-opacity="0.87"/>
<path d="M142.007 11.475C143.445 11.475 144.569 11.8529 145.381 12.6051L144.531 14.2285C143.8 13.6547 143.013 13.3748 142.126 13.3748C141.475 13.3748 141.022 13.7317 141.022 14.1481C141.022 14.6834 141.771 15.0017 142.697 15.2397C144.058 15.537 145.833 16.1528 145.812 17.9756C145.812 19.718 144.413 20.8306 142.223 20.8306C141.454 20.8306 140.705 20.6732 139.957 20.3338C139.226 19.9979 138.735 19.6585 138.519 19.3017L139.623 17.8147C139.88 18.1121 140.295 18.371 140.866 18.5879C141.436 18.8048 141.931 18.9238 142.383 18.9238C143.368 19.0218 144.058 17.9721 143.055 17.4578C141.812 16.8036 138.756 16.7651 138.756 14.1865C138.756 12.5072 140.117 11.475 142.007 11.475Z" fill="black" fill-opacity="0.87"/>
<path fill-rule="evenodd" clip-rule="evenodd" d="M30.9372 28.49C30.9372 29.921 29.771 31.0931 28.3472 31.0931H2.58651C1.16619 31.0931 0 29.9245 0 28.49V2.59954C0 1.17207 1.16619 0 2.58999 0H28.3507C29.7745 0 30.9406 1.17207 30.9406 2.60304V28.49H30.9372ZM17.559 20.5196H15.2928V15.289C15.2928 14.1589 14.7811 13.5851 13.775 13.5851C12.9082 13.5851 12.2955 13.921 11.9404 14.6173C11.9404 14.652 11.9443 14.7524 11.9487 14.8666V14.8666V14.8667C11.9546 15.0173 11.9613 15.1919 11.9613 15.2715V20.5231H9.69507V15.1316C9.69507 14.1799 9.16246 13.5851 8.21558 13.5851C7.40795 13.5851 6.77785 13.9035 6.36359 14.5368V20.5231H4.09735V11.6049H6.36359V12.595C7.05287 11.8218 7.97886 11.4439 9.14505 11.4439C10.4644 11.4439 11.3939 12.0177 11.7281 12.8714C12.4591 11.9198 13.4443 11.4439 14.7254 11.4439C16.6191 11.4439 17.566 12.5355 17.566 14.6942V20.5196H17.559ZM24.121 20.7403C25.6005 20.7403 26.9199 20.205 27.651 19.1939L26.5822 17.525C25.9313 18.2598 25.1619 18.6166 24.2951 18.6166C23.6058 18.6166 22.9931 18.3787 22.4814 17.9239C21.9906 17.4481 21.733 16.8358 21.733 16.0626C21.733 15.3103 21.9697 14.6946 22.464 14.2397C22.9549 13.7639 23.5467 13.526 24.1976 13.526C25.0853 13.526 25.8129 13.8234 26.4047 14.3972L27.4699 12.5953C26.6623 11.7801 25.4787 11.3848 23.9017 11.3848C22.5789 11.3848 21.4754 11.8396 20.6085 12.7318C19.7417 13.624 19.3066 14.7366 19.3066 16.0626C19.3066 17.4725 19.7417 18.5991 20.6294 19.4528C21.5171 20.303 22.6833 20.7403 24.121 20.7403Z" fill="#ED1C24"/>
</g>
<defs>
<clipPath id="clip0">
<rect width="145.816" height="31.0931" fill="white"/>
</clipPath>
</defs>
</svg>
