<svg width="600" height="21" viewBox="0 0 600 21" fill="none" xmlns="http://www.w3.org/2000/svg">
<mask id="mask0" mask-type="alpha" maskUnits="userSpaceOnUse" x="0" y="0" width="600" height="21">
<path d="M0 0H600V21H0V0Z" fill="#FFA800"/>
</mask>
<g mask="url(#mask0)">
<path d="M0 0H600V21H0V0Z" fill="#FF9B05"/>
<path fill-rule="evenodd" clip-rule="evenodd" d="M313.252 -316.616C308.659 -320.844 301.591 -320.844 296.997 -316.616L240.872 -264.95C238.034 -262.337 234.112 -261.248 230.333 -262.023L157.463 -276.975C151.48 -278.203 145.531 -274.742 143.64 -268.935L119.039 -193.364C117.899 -189.863 115.215 -187.078 111.758 -185.811L40.6623 -159.756C35.1794 -157.746 31.939 -152.082 32.986 -146.337L47.4666 -66.8852C48.0974 -63.4242 47.1777 -59.8608 44.9508 -57.1374L-4.99492 3.94409C-8.60862 8.36349 -8.60863 14.7169 -4.99493 19.1364L44.9508 80.2178C47.1777 82.9413 48.0974 86.5046 47.4666 89.9656L32.986 169.417C31.939 175.162 35.1794 180.827 40.6623 182.836L111.758 208.892C115.215 210.159 117.899 212.943 119.039 216.444L143.64 292.015C145.531 297.822 151.48 301.283 157.463 300.056L230.333 285.104C234.112 284.328 238.034 285.417 240.872 288.03L296.997 339.696C301.591 343.924 308.659 343.924 313.252 339.696L369.377 288.03C372.215 285.417 376.137 284.328 379.916 285.104L452.787 300.056C458.769 301.283 464.719 297.822 466.609 292.015L491.21 216.444C492.35 212.943 495.034 210.159 498.492 208.892L569.587 182.836C575.07 180.827 578.31 175.162 577.263 169.417L562.783 89.9656C562.152 86.5046 563.072 82.9412 565.298 80.2178L615.244 19.1364C618.858 14.7169 618.858 8.36349 615.244 3.94412L565.298 -57.1374C563.072 -59.8608 562.152 -63.4242 562.783 -66.8852L577.263 -146.337C578.31 -152.082 575.07 -157.746 569.587 -159.756L498.492 -185.811C495.034 -187.078 492.35 -189.863 491.21 -193.364L466.609 -268.935C464.719 -274.742 458.769 -278.203 452.787 -276.975L379.916 -262.023C376.137 -261.248 372.215 -262.337 369.377 -264.95L313.252 -316.616ZM308.531 -231.454C303.938 -235.682 296.87 -235.682 292.277 -231.454L253.601 -195.851C250.763 -193.239 246.841 -192.15 243.062 -192.925L192.873 -203.223C186.891 -204.45 180.941 -200.989 179.051 -195.182L161.992 -142.78C160.852 -139.279 158.168 -136.495 154.711 -135.228L105.451 -117.175C99.9685 -115.165 96.7281 -109.501 97.7751 -103.756L107.87 -48.3703C108.5 -44.9093 107.581 -41.3459 105.354 -38.6225L70.5474 3.94415C66.9337 8.36356 66.9337 14.7169 70.5474 19.1364L105.354 61.7031C107.581 64.4265 108.5 67.9899 107.87 71.4508L97.7751 126.837C96.7281 132.581 99.9685 138.246 105.451 140.255L154.711 158.308C158.168 159.575 160.852 162.36 161.992 165.861L179.051 218.263C180.941 224.07 186.891 227.531 192.873 226.303L243.062 216.006C246.841 215.23 250.763 216.319 253.601 218.932L292.277 254.534C296.87 258.763 303.938 258.763 308.531 254.534L347.206 218.932C350.045 216.319 353.966 215.23 357.746 216.006L407.934 226.303C413.917 227.531 419.866 224.07 421.757 218.263L438.816 165.861C439.955 162.36 442.64 159.575 446.097 158.308L495.356 140.255C500.839 138.246 504.08 132.581 503.033 126.837L492.938 71.4508C492.307 67.9899 493.227 64.4265 495.454 61.7031L530.26 19.1364C533.874 14.7169 533.874 8.36356 530.26 3.94415L495.454 -38.6225C493.227 -41.3459 492.307 -44.9093 492.938 -48.3703L503.033 -103.756C504.08 -109.501 500.839 -115.165 495.356 -117.175L446.097 -135.228C442.64 -136.495 439.955 -139.279 438.816 -142.78L421.757 -195.182C419.866 -200.989 413.917 -204.45 407.934 -203.223L357.746 -192.925C353.966 -192.15 350.045 -193.239 347.206 -195.851L308.531 -231.454Z" fill="#FFAF37"/>
<path fill-rule="evenodd" clip-rule="evenodd" d="M313.722 -496.652C309.129 -500.88 302.061 -500.88 297.468 -496.652L204.351 -410.933C201.512 -408.32 197.591 -407.231 193.811 -408.007L72.8576 -432.824C66.8754 -434.052 60.9254 -430.591 59.0351 -424.784L18.4449 -300.097C17.3051 -296.596 14.6209 -293.812 11.1636 -292.544L-106.222 -249.524C-111.705 -247.515 -114.946 -241.85 -113.899 -236.105L-90.1197 -105.635C-89.4889 -102.174 -90.4086 -98.611 -92.6355 -95.8876L-174.676 4.44385C-178.289 8.86325 -178.289 15.2167 -174.676 19.6361L-92.6355 119.968C-90.4086 122.691 -89.4889 126.254 -90.1197 129.715L-113.899 260.185C-114.946 265.93 -111.705 271.595 -106.222 273.604L11.1636 316.624C14.6209 317.891 17.3051 320.676 18.4449 324.177L59.0351 448.864C60.9254 454.67 66.8754 458.132 72.8577 456.904L193.811 432.086C197.591 431.311 201.512 432.4 204.351 435.013L297.468 520.732C302.061 524.96 309.129 524.96 313.722 520.732L406.84 435.013C409.678 432.4 413.6 431.311 417.379 432.086L538.333 456.904C544.315 458.132 550.265 454.671 552.155 448.864L592.745 324.177C593.885 320.676 596.569 317.891 600.027 316.624L717.413 273.604C722.896 271.595 726.136 265.93 725.089 260.185L701.31 129.715C700.679 126.254 701.599 122.691 703.826 119.968L785.866 19.636C789.48 15.2167 789.48 8.86325 785.866 4.44385L703.826 -95.8876C701.599 -98.611 700.679 -102.174 701.31 -105.635L725.089 -236.105C726.136 -241.85 722.896 -247.515 717.413 -249.524L600.027 -292.544C596.569 -293.812 593.885 -296.596 592.745 -300.097L552.155 -424.784C550.265 -430.591 544.315 -434.052 538.333 -432.824L417.379 -408.007C413.6 -407.231 409.678 -408.32 406.84 -410.933L313.722 -496.652ZM306.462 -365.683C301.869 -369.911 294.8 -369.911 290.207 -365.683L223.926 -304.668C221.087 -302.055 217.166 -300.966 213.387 -301.741L127.315 -319.402C121.333 -320.629 115.383 -317.168 113.492 -311.361L84.5013 -222.306C83.3615 -218.804 80.6773 -216.02 77.22 -214.753L-6.58467 -184.04C-12.0676 -182.03 -15.308 -176.366 -14.2609 -170.621L2.77258 -77.1618C3.40337 -73.7009 2.48369 -70.1375 0.25679 -67.4141L-58.5005 4.4436C-62.1142 8.86301 -62.1143 15.2164 -58.5005 19.6358L0.25679 91.4935C2.48369 94.2169 3.40337 97.7803 2.77258 101.241L-14.2609 194.7C-15.308 200.445 -12.0676 206.11 -6.58467 208.119L77.22 238.832C80.6773 240.099 83.3615 242.884 84.5013 246.385L113.492 335.441C115.383 341.247 121.333 344.708 127.315 343.481L213.387 325.821C217.166 325.045 221.087 326.134 223.926 328.747L290.207 389.762C294.8 393.99 301.869 393.99 306.462 389.762L372.743 328.747C375.582 326.134 379.503 325.045 383.282 325.821L469.354 343.481C475.336 344.708 481.286 341.247 483.177 335.441L512.168 246.385C513.307 242.884 515.992 240.099 519.449 238.832L603.254 208.119C608.737 206.11 611.977 200.445 610.93 194.7L593.896 101.241C593.266 97.7803 594.185 94.2169 596.412 91.4935L655.169 19.6358C658.783 15.2164 658.783 8.86301 655.169 4.4436L596.412 -67.4141C594.185 -70.1375 593.266 -73.7009 593.896 -77.1619L610.93 -170.621C611.977 -176.366 608.737 -182.03 603.254 -184.04L519.449 -214.753C515.992 -216.02 513.307 -218.804 512.168 -222.306L483.177 -311.361C481.286 -317.168 475.336 -320.629 469.354 -319.402L383.282 -301.741C379.503 -300.966 375.582 -302.055 372.743 -304.668L306.462 -365.683Z" fill="#FFAF37"/>
<path fill-rule="evenodd" clip-rule="evenodd" d="M313.761 -201.013C309.168 -205.241 302.1 -205.241 297.507 -201.013L264.958 -171.05C262.12 -168.437 258.198 -167.348 254.419 -168.124L212.193 -176.788C206.211 -178.015 200.261 -174.554 198.371 -168.747L183.96 -124.479C182.82 -120.978 180.136 -118.194 176.679 -116.927L135.086 -101.684C129.603 -99.6742 126.363 -94.0096 127.41 -88.2648L135.964 -41.3284C136.595 -37.8675 135.675 -34.304 133.448 -31.5806L103.957 4.48563C100.344 8.90503 100.344 15.2585 103.957 19.6779L133.448 55.7441C135.675 58.4675 136.595 62.0309 135.964 65.4919L127.41 112.428C126.363 118.173 129.603 123.838 135.086 125.847L176.679 141.09C180.136 142.357 182.82 145.142 183.96 148.643L198.371 192.911C200.261 198.718 206.211 202.179 212.193 200.951L254.419 192.287C258.198 191.512 262.12 192.601 264.958 195.214L297.507 225.176C302.1 229.405 309.168 229.405 313.761 225.176L346.31 195.214C349.149 192.601 353.07 191.512 356.849 192.287L399.075 200.951C405.057 202.179 411.007 198.717 412.897 192.911L427.308 148.643C428.448 145.142 431.132 142.357 434.589 141.09L476.182 125.847C481.665 123.838 484.906 118.173 483.859 112.428L475.304 65.4919C474.673 62.0309 475.593 58.4675 477.82 55.7441L507.311 19.6779C510.925 15.2585 510.925 8.90506 507.311 4.48566L477.82 -31.5806C475.593 -34.304 474.673 -37.8675 475.304 -41.3284L483.859 -88.2648C484.906 -94.0096 481.665 -99.6742 476.182 -101.684L434.589 -116.927C431.132 -118.194 428.448 -120.978 427.308 -124.479L412.897 -168.747C411.007 -174.554 405.057 -178.015 399.075 -176.788L356.849 -168.124C353.07 -167.348 349.149 -168.437 346.31 -171.05L313.761 -201.013ZM310.658 -145.045C306.065 -149.274 298.997 -149.274 294.404 -145.045L273.323 -125.639C270.484 -123.026 266.563 -121.938 262.784 -122.713L235.464 -128.318C229.482 -129.546 223.532 -126.085 221.642 -120.278L212.188 -91.2365C211.048 -87.7352 208.364 -84.951 204.906 -83.6839L177.664 -73.6998C172.181 -71.6904 168.941 -66.0259 169.988 -60.281L175.659 -29.1605C176.29 -25.6995 175.371 -22.1361 173.144 -19.4127L153.602 4.48587C149.988 8.90527 149.988 15.2587 153.602 19.6781L173.144 43.5767C175.371 46.3001 176.29 49.8635 175.659 53.3245L169.988 84.445C168.941 90.1899 172.181 95.8544 177.664 97.8638L204.906 107.848C208.364 109.115 211.048 111.899 212.188 115.401L221.642 144.442C223.532 150.249 229.482 153.71 235.464 152.482L262.784 146.877C266.563 146.102 270.484 147.19 273.323 149.803L294.404 169.209C298.997 173.438 306.065 173.438 310.658 169.209L331.739 149.803C334.578 147.19 338.5 146.102 342.279 146.877L369.598 152.482C375.58 153.71 381.53 150.249 383.42 144.442L392.875 115.401C394.014 111.899 396.699 109.115 400.156 107.848L427.398 97.8638C432.881 95.8544 436.122 90.1898 435.075 84.445L429.403 53.3245C428.772 49.8635 429.692 46.3001 431.919 43.5767L451.46 19.6781C455.074 15.2587 455.074 8.90527 451.46 4.48587L431.919 -19.4127C429.692 -22.1361 428.772 -25.6995 429.403 -29.1605L435.075 -60.281C436.122 -66.0259 432.881 -71.6904 427.398 -73.6998L400.156 -83.6839C396.699 -84.951 394.014 -87.7352 392.875 -91.2365L383.42 -120.278C381.53 -126.085 375.58 -129.546 369.598 -128.318L342.279 -122.713C338.499 -121.938 334.578 -123.026 331.739 -125.639L310.658 -145.045Z" fill="#FFAF37"/>
<path fill-rule="evenodd" clip-rule="evenodd" d="M314.046 -111.942C309.453 -116.17 302.385 -116.17 297.792 -111.942L283.432 -98.723C280.593 -96.1101 276.672 -95.0212 272.893 -95.7966L254.31 -99.6095C248.327 -100.837 242.377 -97.3759 240.487 -91.569L233.938 -71.4514C232.798 -67.95 230.114 -65.1658 226.657 -63.8987L207.824 -56.997C202.342 -54.9876 199.101 -49.323 200.148 -43.5782L204.131 -21.7271C204.762 -18.2661 203.842 -14.7027 201.615 -11.9793L187.904 4.78799C184.291 9.2074 184.291 15.5608 187.904 19.9802L201.615 36.7476C203.842 39.471 204.762 43.0344 204.131 46.4953L200.148 68.3464C199.101 74.0913 202.342 79.7559 207.824 81.7653L226.657 88.667C230.114 89.9341 232.798 92.7183 233.938 96.2196L240.487 116.337C242.377 122.144 248.327 125.605 254.31 124.378L272.893 120.565C276.672 119.789 280.593 120.878 283.432 123.491L297.792 136.71C302.385 140.939 309.453 140.939 314.046 136.71L328.406 123.491C331.245 120.878 335.166 119.789 338.945 120.565L357.528 124.378C363.511 125.605 369.461 122.144 371.351 116.337L377.9 96.2196C379.04 92.7183 381.724 89.9341 385.181 88.667L404.014 81.7653C409.496 79.7559 412.737 74.0913 411.69 68.3464L407.707 46.4953C407.077 43.0344 407.996 39.4709 410.223 36.7476L423.934 19.9802C427.547 15.5608 427.547 9.20742 423.934 4.78802L410.223 -11.9793C407.996 -14.7027 407.077 -18.2661 407.707 -21.7271L411.69 -43.5782C412.737 -49.323 409.496 -54.9876 404.014 -56.997L385.181 -63.8987C381.724 -65.1658 379.04 -67.95 377.9 -71.4513L371.351 -91.569C369.461 -97.3759 363.511 -100.837 357.528 -99.6095L338.945 -95.7966C335.166 -95.0212 331.245 -96.1101 328.406 -98.723L314.046 -111.942ZM312.193 -78.4983C307.6 -82.7266 300.532 -82.7266 295.939 -78.4983L288.431 -71.5876C285.593 -68.9747 281.671 -67.8858 277.892 -68.6612L268.216 -70.6465C262.234 -71.874 256.284 -68.4129 254.394 -62.606L250.807 -51.5869C249.667 -48.0855 246.983 -45.3013 243.525 -44.0343L233.268 -40.2752C227.786 -38.2658 224.545 -32.6013 225.592 -26.8564L227.852 -14.4562C228.483 -10.9953 227.563 -7.43183 225.336 -4.70844L217.571 4.78793C213.958 9.20733 213.958 15.5608 217.571 19.9802L225.336 29.4765C227.563 32.1999 228.483 35.7634 227.852 39.2243L225.592 51.6245C224.545 57.3694 227.786 63.0339 233.268 65.0433L243.525 68.8024C246.983 70.0694 249.667 72.8536 250.807 76.355L254.394 87.3741C256.284 93.181 262.234 96.6421 268.216 95.4146L277.892 93.4293C281.671 92.6539 285.593 93.7428 288.431 96.3557L295.939 103.266C300.532 107.495 307.6 107.495 312.193 103.266L319.7 96.3557C322.539 93.7428 326.46 92.6539 330.24 93.4293L339.915 95.4146C345.898 96.6421 351.848 93.181 353.738 87.3741L357.325 76.355C358.465 72.8537 361.149 70.0694 364.606 68.8024L374.863 65.0433C380.346 63.0339 383.587 57.3694 382.54 51.6245L380.28 39.2243C379.649 35.7634 380.569 32.1999 382.795 29.4765L390.56 19.9802C394.174 15.5608 394.174 9.20734 390.56 4.78793L382.795 -4.70844C380.569 -7.43184 379.649 -10.9953 380.28 -14.4562L382.54 -26.8564C383.587 -32.6013 380.346 -38.2658 374.863 -40.2752L364.606 -44.0343C361.149 -45.3013 358.465 -48.0855 357.325 -51.5869L353.738 -62.606C351.848 -68.4129 345.898 -71.874 339.915 -70.6465L330.24 -68.6612C326.46 -67.8858 322.539 -68.9746 319.7 -71.5876L312.193 -78.4983Z" fill="#FFAF37"/>
<path fill-rule="evenodd" clip-rule="evenodd" d="M313.576 -48.6116C308.983 -52.8399 301.915 -52.8399 297.321 -48.6116L296.04 -47.4325C293.202 -44.8196 289.28 -43.7307 285.501 -44.5061L283.919 -44.8308C277.936 -46.0583 271.986 -42.5972 270.096 -36.7903L269.2 -34.0381C268.06 -30.5368 265.376 -27.7526 261.919 -26.4855L259.453 -25.5819C253.97 -23.5725 250.73 -17.908 251.777 -12.1631L252.472 -8.34998C253.103 -4.88904 252.183 -1.32563 249.956 1.39777L247.593 4.28778C243.979 8.70718 243.979 15.0606 247.593 19.48L249.956 22.3701C252.183 25.0935 253.103 28.6569 252.472 32.1178L251.777 35.9309C250.73 41.6758 253.97 47.3403 259.453 49.3497L261.919 50.2533C265.376 51.5204 268.06 54.3046 269.2 57.8059L270.096 60.5581C271.986 66.365 277.936 69.8261 283.919 68.5986L285.501 68.2739C289.28 67.4985 293.202 68.5873 296.04 71.2003L297.321 72.3794C301.915 76.6077 308.983 76.6077 313.576 72.3794L314.857 71.2003C317.695 68.5873 321.617 67.4985 325.396 68.2739L326.979 68.5986C332.961 69.8261 338.911 66.365 340.801 60.5581L341.697 57.8059C342.837 54.3046 345.521 51.5204 348.978 50.2533L351.444 49.3497C356.927 47.3403 360.167 41.6758 359.12 35.9309L358.425 32.1178C357.794 28.6569 358.714 25.0935 360.941 22.3701L363.304 19.48C366.918 15.0606 366.918 8.70718 363.304 4.28778L360.941 1.39777C358.714 -1.32563 357.794 -4.88904 358.425 -8.34998L359.12 -12.1631C360.167 -17.908 356.927 -23.5725 351.444 -25.5819L348.978 -26.4855C345.521 -27.7526 342.837 -30.5368 341.697 -34.0381L340.801 -36.7903C338.911 -42.5972 332.961 -46.0583 326.979 -44.8308L325.396 -44.5061C321.617 -43.7307 317.695 -44.8196 314.857 -47.4325L313.576 -48.6116ZM311.184 -32.6862C307.409 -36.1612 301.576 -36.1612 297.801 -32.6862C295.48 -30.5495 292.267 -29.653 289.176 -30.2871C284.284 -31.2908 279.419 -28.4606 277.873 -23.712L277.663 -23.0688C276.673 -20.0253 274.339 -17.6052 271.334 -16.5038C266.568 -14.7572 263.752 -9.83341 264.662 -4.83981L264.777 -4.20621C265.363 -0.995567 264.509 2.31011 262.443 4.83655C259.091 8.93633 259.091 14.8303 262.443 18.9301C264.509 21.4565 265.363 24.7622 264.777 27.9728L264.662 28.6064C263.752 33.6 266.568 38.5238 271.334 40.2704C274.339 41.3718 276.673 43.7919 277.663 46.8354L277.873 47.4786C279.419 52.2272 284.284 55.0575 289.176 54.0537C292.267 53.4196 295.48 54.3161 297.801 56.4528C301.576 59.9278 307.409 59.9278 311.184 56.4528C313.505 54.3161 316.718 53.4196 319.809 54.0537C324.701 55.0575 329.566 52.2272 331.112 47.4786L331.322 46.8354C332.312 43.7919 334.646 41.3718 337.651 40.2704C342.417 38.5238 345.233 33.6 344.323 28.6064L344.208 27.9728C343.623 24.7622 344.476 21.4565 346.542 18.9301C349.894 14.8303 349.894 8.93633 346.542 4.83655C344.476 2.31011 343.623 -0.995571 344.208 -4.20621L344.323 -4.83981C345.233 -9.83341 342.417 -14.7572 337.651 -16.5038C334.646 -17.6052 332.312 -20.0253 331.322 -23.0688L331.112 -23.712C329.566 -28.4606 324.701 -31.2908 319.809 -30.2871C316.718 -29.653 313.505 -30.5495 311.184 -32.6862Z" fill="#FFAF37"/>
<path fill-rule="evenodd" clip-rule="evenodd" d="M309.994 -15.6318C307.631 -17.8067 303.98 -17.8067 301.618 -15.6318C300.165 -14.2945 298.154 -13.7334 296.22 -14.1303C293.158 -14.7585 290.113 -12.9871 289.145 -10.0151L289.014 -9.61258C288.394 -7.70777 286.934 -6.1931 285.053 -5.50378C282.07 -4.41062 280.307 -1.32896 280.877 1.79639L280.949 2.19293C281.315 4.20238 280.781 6.27131 279.489 7.85254C277.39 10.4185 277.39 14.1073 279.489 16.6733C280.781 18.2545 281.315 20.3234 280.949 22.3329L280.877 22.7294C280.307 25.8548 282.07 28.9364 285.053 30.0296C286.934 30.7189 288.394 32.2336 289.014 34.1384L289.145 34.541C290.113 37.513 293.158 39.2843 296.22 38.6561C298.154 38.2592 300.165 38.8203 301.618 40.1576C303.98 42.3325 307.631 42.3325 309.994 40.1576C311.446 38.8203 313.458 38.2592 315.392 38.6561C318.454 39.2843 321.499 37.513 322.466 34.541L322.597 34.1384C323.217 32.2336 324.678 30.7189 326.559 30.0296C329.541 28.9364 331.304 25.8548 330.735 22.7294L330.662 22.3329C330.296 20.3234 330.83 18.2545 332.123 16.6733C334.221 14.1073 334.221 10.4185 332.123 7.85254C330.83 6.27131 330.296 4.20238 330.662 2.19293L330.735 1.79639C331.304 -1.32896 329.541 -4.41062 326.559 -5.50378C324.678 -6.1931 323.217 -7.70777 322.597 -9.61258L322.466 -10.0151C321.499 -12.9871 318.454 -14.7585 315.392 -14.1303C313.458 -13.7334 311.446 -14.2945 309.994 -15.6318ZM308.484 -8.55469C306.721 -10.1778 303.997 -10.1778 302.233 -8.55469C301.149 -7.55671 299.648 -7.13797 298.205 -7.43414C295.92 -7.90296 293.648 -6.58104 292.926 -4.36313L292.828 -4.06271C292.365 -2.64121 291.275 -1.51084 289.872 -0.996429C287.646 -0.180634 286.33 2.1191 286.755 4.45145L286.809 4.74738C287.082 6.24696 286.684 7.79093 285.719 8.97095C284.153 10.8858 284.153 13.6387 285.719 15.5536C286.684 16.7336 287.082 18.2776 286.809 19.7772L286.755 20.0731C286.33 22.4055 287.646 24.7052 289.872 25.521C291.275 26.0354 292.365 27.1657 292.828 28.5872L292.926 28.8876C293.648 31.1055 295.92 32.4275 298.205 31.9587C299.648 31.6625 301.149 32.0812 302.233 33.0792C303.997 34.7023 306.721 34.7023 308.484 33.0792C309.568 32.0812 311.069 31.6625 312.513 31.9587C314.797 32.4275 317.07 31.1055 317.792 28.8876L317.89 28.5872C318.353 27.1657 319.442 26.0354 320.846 25.521C323.072 24.7052 324.387 22.4055 323.962 20.0731L323.908 19.7772C323.635 18.2776 324.034 16.7336 324.999 15.5536C326.564 13.6387 326.564 10.8858 324.999 8.97095C324.034 7.79093 323.635 6.24696 323.908 4.74738L323.962 4.45145C324.387 2.1191 323.072 -0.180634 320.846 -0.996429C319.442 -1.51084 318.353 -2.64121 317.89 -4.06271L317.792 -4.36313C317.07 -6.58104 314.797 -7.90296 312.513 -7.43414C311.069 -7.13797 309.568 -7.55671 308.484 -8.55469Z" fill="#FFAF37"/>
</g>
</svg>
